<svg xmlns="http://www.w3.org/2000/svg" version="1.1" width="500" height="500">
<rect x="0" y="0" width="500" height="500" style="stroke:#000;fill:none" />
<line x1="125" y1="35" x2="47" y2="170" style="stroke:#000" />
<line x1="125" y1="44" x2="55" y2="166" style="stroke:#000" />
<line x1="125" y1="52" x2="62" y2="161" style="stroke:#000" />
<line x1="125" y1="59" x2="68" y2="158" style="stroke:#000" />
<line x1="125" y1="66" x2="74" y2="155" style="stroke:#000" />
<line x1="125" y1="72" x2="79" y2="152" style="stroke:#000" />
<line x1="125" y1="77" x2="83" y2="149" style="stroke:#000" />
<line x1="125" y1="82" x2="88" y2="147" style="stroke:#000" />
<line x1="125" y1="86" x2="91" y2="144" style="stroke:#000" />
<line x1="125" y1="90" x2="95" y2="142" style="stroke:#000" />
<line x1="125" y1="94" x2="98" y2="141" style="stroke:#000" />
<line x1="125" y1="97" x2="100" y2="139" style="stroke:#000" />
<line x1="125" y1="100" x2="103" y2="138" style="stroke:#000" />
<line x1="125" y1="102" x2="105" y2="136" style="stroke:#000" />
<line x1="125" y1="104" x2="107" y2="135" style="stroke:#000" />
<line x1="125" y1="106" x2="109" y2="134" style="stroke:#000" />
<line x1="125" y1="108" x2="110" y2="133" style="stroke:#000" />
<line x1="125" y1="110" x2="112" y2="133" style="stroke:#000" />
<line x1="125" y1="111" x2="113" y2="132" style="stroke:#000" />
<line x1="125" y1="113" x2="114" y2="131" style="stroke:#000" />
<line x1="125" y1="114" x2="115" y2="130" style="stroke:#000" />
<line x1="125" y1="115" x2="116" y2="130" style="stroke:#000" />
<line x1="125" y1="116" x2="117" y2="129" style="stroke:#000" />
<line x1="125" y1="117" x2="118" y2="129" style="stroke:#000" />
<line x1="125" y1="118" x2="119" y2="129" style="stroke:#000" />
<line x1="47" y1="170" x2="203" y2="170" style="stroke:#000" />
<line x1="55" y1="166" x2="195" y2="166" style="stroke:#000" />
<line x1="62" y1="161" x2="188" y2="161" style="stroke:#000" />
<line x1="68" y1="158" x2="182" y2="158" style="stroke:#000" />
<line x1="74" y1="155" x2="176" y2="155" style="stroke:#000" />
<line x1="79" y1="152" x2="171" y2="152" style="stroke:#000" />
<line x1="83" y1="149" x2="167" y2="149" style="stroke:#000" />
<line x1="88" y1="147" x2="162" y2="147" style="stroke:#000" />
<line x1="91" y1="144" x2="159" y2="144" style="stroke:#000" />
<line x1="95" y1="142" x2="155" y2="142" style="stroke:#000" />
<line x1="98" y1="141" x2="152" y2="141" style="stroke:#000" />
<line x1="100" y1="139" x2="150" y2="139" style="stroke:#000" />
<line x1="103" y1="138" x2="147" y2="138" style="stroke:#000" />
<line x1="105" y1="136" x2="145" y2="136" style="stroke:#000" />
<line x1="107" y1="135" x2="143" y2="135" style="stroke:#000" />
<line x1="109" y1="134" x2="141" y2="134" style="stroke:#000" />
<line x1="110" y1="133" x2="140" y2="133" style="stroke:#000" />
<line x1="112" y1="133" x2="138" y2="133" style="stroke:#000" />
<line x1="113" y1="132" x2="137" y2="132" style="stroke:#000" />
<line x1="114" y1="131" x2="136" y2="131" style="stroke:#000" />
<line x1="115" y1="130" x2="135" y2="130" style="stroke:#000" />
<line x1="116" y1="130" x2="134" y2="130" style="stroke:#000" />
<line x1="117" y1="129" x2="133" y2="129" style="stroke:#000" />
<line x1="118" y1="129" x2="132" y2="129" style="stroke:#000" />
<line x1="119" y1="129" x2="131" y2="129" style="stroke:#000" />
<line x1="203" y1="170" x2="125" y2="35" style="stroke:#000" />
<line x1="195" y1="166" x2="125" y2="44" style="stroke:#000" />
<line x1="188" y1="161" x2="125" y2="52" style="stroke:#000" />
<line x1="182" y1="158" x2="125" y2="59" style="stroke:#000" />
<line x1="176" y1="155" x2="125" y2="66" style="stroke:#000" />
<line x1="171" y1="152" x2="125" y2="72" style="stroke:#000" />
<line x1="167" y1="149" x2="125" y2="77" style="stroke:#000" />
<line x1="162" y1="147" x2="125" y2="82" style="stroke:#000" />
<line x1="159" y1="144" x2="125" y2="86" style="stroke:#000" />
<line x1="155" y1="142" x2="125" y2="90" style="stroke:#000" />
<line x1="152" y1="141" x2="125" y2="94" style="stroke:#000" />
<line x1="150" y1="139" x2="125" y2="97" style="stroke:#000" />
<line x1="147" y1="138" x2="125" y2="100" style="stroke:#000" />
<line x1="145" y1="136" x2="125" y2="102" style="stroke:#000" />
<line x1="143" y1="135" x2="125" y2="104" style="stroke:#000" />
<line x1="141" y1="134" x2="125" y2="106" style="stroke:#000" />
<line x1="140" y1="133" x2="125" y2="108" style="stroke:#000" />
<line x1="138" y1="133" x2="125" y2="110" style="stroke:#000" />
<line x1="137" y1="132" x2="125" y2="111" style="stroke:#000" />
<line x1="136" y1="131" x2="125" y2="113" style="stroke:#000" />
<line x1="135" y1="130" x2="125" y2="114" style="stroke:#000" />
<line x1="134" y1="130" x2="125" y2="115" style="stroke:#000" />
<line x1="133" y1="129" x2="125" y2="116" style="stroke:#000" />
<line x1="132" y1="129" x2="125" y2="117" style="stroke:#000" />
<line x1="131" y1="129" x2="125" y2="118" style="stroke:#000" />
<line x1="375" y1="35" x2="285" y2="125" style="stroke:#000" />
<line x1="375" y1="44" x2="294" y2="125" style="stroke:#000" />
<line x1="375" y1="52" x2="302" y2="125" style="stroke:#000" />
<line x1="375" y1="59" x2="309" y2="125" style="stroke:#000" />
<line x1="375" y1="66" x2="316" y2="125" style="stroke:#000" />
<line x1="375" y1="72" x2="322" y2="125" style="stroke:#000" />
<line x1="375" y1="77" x2="327" y2="125" style="stroke:#000" />
<line x1="375" y1="82" x2="332" y2="125" style="stroke:#000" />
<line x1="375" y1="86" x2="336" y2="125" style="stroke:#000" />
<line x1="375" y1="90" x2="340" y2="125" style="stroke:#000" />
<line x1="375" y1="94" x2="344" y2="125" style="stroke:#000" />
<line x1="375" y1="97" x2="347" y2="125" style="stroke:#000" />
<line x1="375" y1="100" x2="350" y2="125" style="stroke:#000" />
<line x1="375" y1="102" x2="352" y2="125" style="stroke:#000" />
<line x1="375" y1="104" x2="354" y2="125" style="stroke:#000" />
<line x1="375" y1="106" x2="356" y2="125" style="stroke:#000" />
<line x1="375" y1="108" x2="358" y2="125" style="stroke:#000" />
<line x1="375" y1="110" x2="360" y2="125" style="stroke:#000" />
<line x1="375" y1="111" x2="361" y2="125" style="stroke:#000" />
<line x1="375" y1="113" x2="363" y2="125" style="stroke:#000" />
<line x1="375" y1="114" x2="364" y2="125" style="stroke:#000" />
<line x1="375" y1="115" x2="365" y2="125" style="stroke:#000" />
<line x1="375" y1="116" x2="366" y2="125" style="stroke:#000" />
<line x1="375" y1="117" x2="367" y2="125" style="stroke:#000" />
<line x1="375" y1="118" x2="368" y2="125" style="stroke:#000" />
<line x1="285" y1="125" x2="375" y2="215" style="stroke:#000" />
<line x1="294" y1="125" x2="375" y2="206" style="stroke:#000" />
<line x1="302" y1="125" x2="375" y2="198" style="stroke:#000" />
<line x1="309" y1="125" x2="375" y2="191" style="stroke:#000" />
<line x1="316" y1="125" x2="375" y2="184" style="stroke:#000" />
<line x1="322" y1="125" x2="375" y2="178" style="stroke:#000" />
<line x1="327" y1="125" x2="375" y2="173" style="stroke:#000" />
<line x1="332" y1="125" x2="375" y2="168" style="stroke:#000" />
<line x1="336" y1="125" x2="375" y2="164" style="stroke:#000" />
<line x1="340" y1="125" x2="375" y2="160" style="stroke:#000" />
<line x1="344" y1="125" x2="375" y2="156" style="stroke:#000" />
<line x1="347" y1="125" x2="375" y2="153" style="stroke:#000" />
<line x1="350" y1="125" x2="375" y2="150" style="stroke:#000" />
<line x1="352" y1="125" x2="375" y2="148" style="stroke:#000" />
<line x1="354" y1="125" x2="375" y2="146" style="stroke:#000" />
<line x1="356" y1="125" x2="375" y2="144" style="stroke:#000" />
<line x1="358" y1="125" x2="375" y2="142" style="stroke:#000" />
<line x1="360" y1="125" x2="375" y2="140" style="stroke:#000" />
<line x1="361" y1="125" x2="375" y2="139" style="stroke:#000" />
<line x1="363" y1="125" x2="375" y2="137" style="stroke:#000" />
<line x1="364" y1="125" x2="375" y2="136" style="stroke:#000" />
<line x1="365" y1="125" x2="375" y2="135" style="stroke:#000" />
<line x1="366" y1="125" x2="375" y2="134" style="stroke:#000" />
<line x1="367" y1="125" x2="375" y2="133" style="stroke:#000" />
<line x1="368" y1="125" x2="375" y2="132" style="stroke:#000" />
<line x1="375" y1="215" x2="465" y2="125" style="stroke:#000" />
<line x1="375" y1="206" x2="456" y2="125" style="stroke:#000" />
<line x1="375" y1="198" x2="448" y2="125" style="stroke:#000" />
<line x1="375" y1="191" x2="441" y2="125" style="stroke:#000" />
<line x1="375" y1="184" x2="434" y2="125" style="stroke:#000" />
<line x1="375" y1="178" x2="428" y2="125" style="stroke:#000" />
<line x1="375" y1="173" x2="423" y2="125" style="stroke:#000" />
<line x1="375" y1="168" x2="418" y2="125" style="stroke:#000" />
<line x1="375" y1="164" x2="414" y2="125" style="stroke:#000" />
<line x1="375" y1="160" x2="410" y2="125" style="stroke:#000" />
<line x1="375" y1="156" x2="406" y2="125" style="stroke:#000" />
<line x1="375" y1="153" x2="403" y2="125" style="stroke:#000" />
<line x1="375" y1="150" x2="400" y2="125" style="stroke:#000" />
<line x1="375" y1="148" x2="398" y2="125" style="stroke:#000" />
<line x1="375" y1="146" x2="396" y2="125" style="stroke:#000" />
<line x1="375" y1="144" x2="394" y2="125" style="stroke:#000" />
<line x1="375" y1="142" x2="392" y2="125" style="stroke:#000" />
<line x1="375" y1="140" x2="390" y2="125" style="stroke:#000" />
<line x1="375" y1="139" x2="389" y2="125" style="stroke:#000" />
<line x1="375" y1="137" x2="387" y2="125" style="stroke:#000" />
<line x1="375" y1="136" x2="386" y2="125" style="stroke:#000" />
<line x1="375" y1="135" x2="385" y2="125" style="stroke:#000" />
<line x1="375" y1="134" x2="384" y2="125" style="stroke:#000" />
<line x1="375" y1="133" x2="383" y2="125" style="stroke:#000" />
<line x1="375" y1="132" x2="382" y2="125" style="stroke:#000" />
<line x1="465" y1="125" x2="375" y2="35" style="stroke:#000" />
<line x1="456" y1="125" x2="375" y2="44" style="stroke:#000" />
<line x1="448" y1="125" x2="375" y2="52" style="stroke:#000" />
<line x1="441" y1="125" x2="375" y2="59" style="stroke:#000" />
<line x1="434" y1="125" x2="375" y2="66" style="stroke:#000" />
<line x1="428" y1="125" x2="375" y2="72" style="stroke:#000" />
<line x1="423" y1="125" x2="375" y2="77" style="stroke:#000" />
<line x1="418" y1="125" x2="375" y2="82" style="stroke:#000" />
<line x1="414" y1="125" x2="375" y2="86" style="stroke:#000" />
<line x1="410" y1="125" x2="375" y2="90" style="stroke:#000" />
<line x1="406" y1="125" x2="375" y2="94" style="stroke:#000" />
<line x1="403" y1="125" x2="375" y2="97" style="stroke:#000" />
<line x1="400" y1="125" x2="375" y2="100" style="stroke:#000" />
<line x1="398" y1="125" x2="375" y2="102" style="stroke:#000" />
<line x1="396" y1="125" x2="375" y2="104" style="stroke:#000" />
<line x1="394" y1="125" x2="375" y2="106" style="stroke:#000" />
<line x1="392" y1="125" x2="375" y2="108" style="stroke:#000" />
<line x1="390" y1="125" x2="375" y2="110" style="stroke:#000" />
<line x1="389" y1="125" x2="375" y2="111" style="stroke:#000" />
<line x1="387" y1="125" x2="375" y2="113" style="stroke:#000" />
<line x1="386" y1="125" x2="375" y2="114" style="stroke:#000" />
<line x1="385" y1="125" x2="375" y2="115" style="stroke:#000" />
<line x1="384" y1="125" x2="375" y2="116" style="stroke:#000" />
<line x1="383" y1="125" x2="375" y2="117" style="stroke:#000" />
<line x1="382" y1="125" x2="375" y2="118" style="stroke:#000" />
<line x1="375" y1="285" x2="289" y2="347" style="stroke:#000" />
<line x1="375" y1="294" x2="298" y2="350" style="stroke:#000" />
<line x1="375" y1="302" x2="306" y2="352" style="stroke:#000" />
<line x1="375" y1="309" x2="313" y2="355" style="stroke:#000" />
<line x1="375" y1="316" x2="319" y2="357" style="stroke:#000" />
<line x1="375" y1="322" x2="325" y2="359" style="stroke:#000" />
<line x1="375" y1="327" x2="330" y2="360" style="stroke:#000" />
<line x1="375" y1="332" x2="334" y2="362" style="stroke:#000" />
<line x1="375" y1="336" x2="338" y2="363" style="stroke:#000" />
<line x1="375" y1="340" x2="342" y2="364" style="stroke:#000" />
<line x1="375" y1="344" x2="345" y2="365" style="stroke:#000" />
<line x1="375" y1="347" x2="348" y2="366" style="stroke:#000" />
<line x1="375" y1="350" x2="351" y2="367" style="stroke:#000" />
<line x1="375" y1="352" x2="353" y2="368" style="stroke:#000" />
<line x1="375" y1="354" x2="355" y2="369" style="stroke:#000" />
<line x1="375" y1="356" x2="357" y2="369" style="stroke:#000" />
<line x1="375" y1="358" x2="359" y2="370" style="stroke:#000" />
<line x1="375" y1="360" x2="361" y2="370" style="stroke:#000" />
<line x1="375" y1="361" x2="362" y2="371" style="stroke:#000" />
<line x1="375" y1="363" x2="363" y2="371" style="stroke:#000" />
<line x1="375" y1="364" x2="365" y2="372" style="stroke:#000" />
<line x1="375" y1="365" x2="366" y2="372" style="stroke:#000" />
<line x1="375" y1="366" x2="367" y2="372" style="stroke:#000" />
<line x1="375" y1="367" x2="367" y2="373" style="stroke:#000" />
<line x1="375" y1="368" x2="368" y2="373" style="stroke:#000" />
<line x1="289" y1="347" x2="322" y2="448" style="stroke:#000" />
<line x1="298" y1="350" x2="327" y2="441" style="stroke:#000" />
<line x1="306" y1="352" x2="332" y2="434" style="stroke:#000" />
<line x1="313" y1="355" x2="336" y2="428" style="stroke:#000" />
<line x1="319" y1="357" x2="340" y2="423" style="stroke:#000" />
<line x1="325" y1="359" x2="344" y2="418" style="stroke:#000" />
<line x1="330" y1="360" x2="347" y2="414" style="stroke:#000" />
<line x1="334" y1="362" x2="350" y2="410" style="stroke:#000" />
<line x1="338" y1="363" x2="352" y2="406" style="stroke:#000" />
<line x1="342" y1="364" x2="354" y2="403" style="stroke:#000" />
<line x1="345" y1="365" x2="356" y2="400" style="stroke:#000" />
<line x1="348" y1="366" x2="358" y2="398" style="stroke:#000" />
<line x1="351" y1="367" x2="360" y2="396" style="stroke:#000" />
<line x1="353" y1="368" x2="362" y2="394" style="stroke:#000" />
<line x1="355" y1="369" x2="363" y2="392" style="stroke:#000" />
<line x1="357" y1="369" x2="364" y2="390" style="stroke:#000" />
<line x1="359" y1="370" x2="365" y2="389" style="stroke:#000" />
<line x1="361" y1="370" x2="366" y2="387" style="stroke:#000" />
<line x1="362" y1="371" x2="367" y2="386" style="stroke:#000" />
<line x1="363" y1="371" x2="368" y2="385" style="stroke:#000" />
<line x1="365" y1="372" x2="369" y2="384" style="stroke:#000" />
<line x1="366" y1="372" x2="369" y2="383" style="stroke:#000" />
<line x1="367" y1="372" x2="370" y2="382" style="stroke:#000" />
<line x1="367" y1="373" x2="370" y2="381" style="stroke:#000" />
<line x1="368" y1="373" x2="371" y2="381" style="stroke:#000" />
<line x1="322" y1="448" x2="428" y2="448" style="stroke:#000" />
<line x1="327" y1="441" x2="423" y2="441" style="stroke:#000" />
<line x1="332" y1="434" x2="418" y2="434" style="stroke:#000" />
<line x1="336" y1="428" x2="414" y2="428" style="stroke:#000" />
<line x1="340" y1="423" x2="410" y2="423" style="stroke:#000" />
<line x1="344" y1="418" x2="406" y2="418" style="stroke:#000" />
<line x1="347" y1="414" x2="403" y2="414" style="stroke:#000" />
<line x1="350" y1="410" x2="400" y2="410" style="stroke:#000" />
<line x1="352" y1="406" x2="398" y2="406" style="stroke:#000" />
<line x1="354" y1="403" x2="396" y2="403" style="stroke:#000" />
<line x1="356" y1="400" x2="394" y2="400" style="stroke:#000" />
<line x1="358" y1="398" x2="392" y2="398" style="stroke:#000" />
<line x1="360" y1="396" x2="390" y2="396" style="stroke:#000" />
<line x1="362" y1="394" x2="388" y2="394" style="stroke:#000" />
<line x1="363" y1="392" x2="387" y2="392" style="stroke:#000" />
<line x1="364" y1="390" x2="386" y2="390" style="stroke:#000" />
<line x1="365" y1="389" x2="385" y2="389" style="stroke:#000" />
<line x1="366" y1="387" x2="384" y2="387" style="stroke:#000" />
<line x1="367" y1="386" x2="383" y2="386" style="stroke:#000" />
<line x1="368" y1="385" x2="382" y2="385" style="stroke:#000" />
<line x1="369" y1="384" x2="381" y2="384" style="stroke:#000" />
<line x1="369" y1="383" x2="381" y2="383" style="stroke:#000" />
<line x1="370" y1="382" x2="380" y2="382" style="stroke:#000" />
<line x1="370" y1="381" x2="380" y2="381" style="stroke:#000" />
<line x1="371" y1="381" x2="379" y2="381" style="stroke:#000" />
<line x1="428" y1="448" x2="461" y2="347" style="stroke:#000" />
<line x1="423" y1="441" x2="452" y2="350" style="stroke:#000" />
<line x1="418" y1="434" x2="444" y2="352" style="stroke:#000" />
<line x1="414" y1="428" x2="437" y2="355" style="stroke:#000" />
<line x1="410" y1="423" x2="431" y2="357" style="stroke:#000" />
<line x1="406" y1="418" x2="425" y2="359" style="stroke:#000" />
<line x1="403" y1="414" x2="420" y2="360" style="stroke:#000" />
<line x1="400" y1="410" x2="416" y2="362" style="stroke:#000" />
<line x1="398" y1="406" x2="412" y2="363" style="stroke:#000" />
<line x1="396" y1="403" x2="408" y2="364" style="stroke:#000" />
<line x1="394" y1="400" x2="405" y2="365" style="stroke:#000" />
<line x1="392" y1="398" x2="402" y2="366" style="stroke:#000" />
<line x1="390" y1="396" x2="399" y2="367" style="stroke:#000" />
<line x1="388" y1="394" x2="397" y2="368" style="stroke:#000" />
<line x1="387" y1="392" x2="395" y2="369" style="stroke:#000" />
<line x1="386" y1="390" x2="393" y2="369" style="stroke:#000" />
<line x1="385" y1="389" x2="391" y2="370" style="stroke:#000" />
<line x1="384" y1="387" x2="389" y2="370" style="stroke:#000" />
<line x1="383" y1="386" x2="388" y2="371" style="stroke:#000" />
<line x1="382" y1="385" x2="387" y2="371" style="stroke:#000" />
<line x1="381" y1="384" x2="385" y2="372" style="stroke:#000" />
<line x1="381" y1="383" x2="384" y2="372" style="stroke:#000" />
<line x1="380" y1="382" x2="383" y2="372" style="stroke:#000" />
<line x1="380" y1="381" x2="383" y2="373" style="stroke:#000" />
<line x1="379" y1="381" x2="382" y2="373" style="stroke:#000" />
<line x1="461" y1="347" x2="375" y2="285" style="stroke:#000" />
<line x1="452" y1="350" x2="375" y2="294" style="stroke:#000" />
<line x1="444" y1="352" x2="375" y2="302" style="stroke:#000" />
<line x1="437" y1="355" x2="375" y2="309" style="stroke:#000" />
<line x1="431" y1="357" x2="375" y2="316" style="stroke:#000" />
<line x1="425" y1="359" x2="375" y2="322" style="stroke:#000" />
<line x1="420" y1="360" x2="375" y2="327" style="stroke:#000" />
<line x1="416" y1="362" x2="375" y2="332" style="stroke:#000" />
<line x1="412" y1="363" x2="375" y2="336" style="stroke:#000" />
<line x1="408" y1="364" x2="375" y2="340" style="stroke:#000" />
<line x1="405" y1="365" x2="375" y2="344" style="stroke:#000" />
<line x1="402" y1="366" x2="375" y2="347" style="stroke:#000" />
<line x1="399" y1="367" x2="375" y2="350" style="stroke:#000" />
<line x1="397" y1="368" x2="375" y2="352" style="stroke:#000" />
<line x1="395" y1="369" x2="375" y2="354" style="stroke:#000" />
<line x1="393" y1="369" x2="375" y2="356" style="stroke:#000" />
<line x1="391" y1="370" x2="375" y2="358" style="stroke:#000" />
<line x1="389" y1="370" x2="375" y2="360" style="stroke:#000" />
<line x1="388" y1="371" x2="375" y2="361" style="stroke:#000" />
<line x1="387" y1="371" x2="375" y2="363" style="stroke:#000" />
<line x1="385" y1="372" x2="375" y2="364" style="stroke:#000" />
<line x1="384" y1="372" x2="375" y2="365" style="stroke:#000" />
<line x1="383" y1="372" x2="375" y2="366" style="stroke:#000" />
<line x1="383" y1="373" x2="375" y2="367" style="stroke:#000" />
<line x1="382" y1="373" x2="375" y2="368" style="stroke:#000" />
<line x1="125" y1="285" x2="47" y2="330" style="stroke:#000" />
<line x1="125" y1="294" x2="55" y2="334" style="stroke:#000" />
<line x1="125" y1="302" x2="62" y2="339" style="stroke:#000" />
<line x1="125" y1="309" x2="68" y2="342" style="stroke:#000" />
<line x1="125" y1="316" x2="74" y2="345" style="stroke:#000" />
<line x1="125" y1="322" x2="79" y2="348" style="stroke:#000" />
<line x1="125" y1="327" x2="83" y2="351" style="stroke:#000" />
<line x1="125" y1="332" x2="88" y2="353" style="stroke:#000" />
<line x1="125" y1="336" x2="91" y2="356" style="stroke:#000" />
<line x1="125" y1="340" x2="95" y2="358" style="stroke:#000" />
<line x1="125" y1="344" x2="98" y2="359" style="stroke:#000" />
<line x1="125" y1="347" x2="100" y2="361" style="stroke:#000" />
<line x1="125" y1="350" x2="103" y2="362" style="stroke:#000" />
<line x1="125" y1="352" x2="105" y2="364" style="stroke:#000" />
<line x1="125" y1="354" x2="107" y2="365" style="stroke:#000" />
<line x1="125" y1="356" x2="109" y2="366" style="stroke:#000" />
<line x1="125" y1="358" x2="110" y2="367" style="stroke:#000" />
<line x1="125" y1="360" x2="112" y2="367" style="stroke:#000" />
<line x1="125" y1="361" x2="113" y2="368" style="stroke:#000" />
<line x1="125" y1="363" x2="114" y2="369" style="stroke:#000" />
<line x1="125" y1="364" x2="115" y2="370" style="stroke:#000" />
<line x1="125" y1="365" x2="116" y2="370" style="stroke:#000" />
<line x1="125" y1="366" x2="117" y2="371" style="stroke:#000" />
<line x1="125" y1="367" x2="118" y2="371" style="stroke:#000" />
<line x1="125" y1="368" x2="119" y2="371" style="stroke:#000" />
<line x1="47" y1="330" x2="47" y2="420" style="stroke:#000" />
<line x1="55" y1="334" x2="55" y2="416" style="stroke:#000" />
<line x1="62" y1="339" x2="62" y2="411" style="stroke:#000" />
<line x1="68" y1="342" x2="68" y2="408" style="stroke:#000" />
<line x1="74" y1="345" x2="74" y2="405" style="stroke:#000" />
<line x1="79" y1="348" x2="79" y2="402" style="stroke:#000" />
<line x1="83" y1="351" x2="83" y2="399" style="stroke:#000" />
<line x1="88" y1="353" x2="88" y2="397" style="stroke:#000" />
<line x1="91" y1="356" x2="91" y2="394" style="stroke:#000" />
<line x1="95" y1="358" x2="95" y2="392" style="stroke:#000" />
<line x1="98" y1="359" x2="98" y2="391" style="stroke:#000" />
<line x1="100" y1="361" x2="100" y2="389" style="stroke:#000" />
<line x1="103" y1="362" x2="103" y2="388" style="stroke:#000" />
<line x1="105" y1="364" x2="105" y2="386" style="stroke:#000" />
<line x1="107" y1="365" x2="107" y2="385" style="stroke:#000" />
<line x1="109" y1="366" x2="109" y2="384" style="stroke:#000" />
<line x1="110" y1="367" x2="110" y2="383" style="stroke:#000" />
<line x1="112" y1="367" x2="112" y2="383" style="stroke:#000" />
<line x1="113" y1="368" x2="113" y2="382" style="stroke:#000" />
<line x1="114" y1="369" x2="114" y2="381" style="stroke:#000" />
<line x1="115" y1="370" x2="115" y2="380" style="stroke:#000" />
<line x1="116" y1="370" x2="116" y2="380" style="stroke:#000" />
<line x1="117" y1="371" x2="117" y2="379" style="stroke:#000" />
<line x1="118" y1="371" x2="118" y2="379" style="stroke:#000" />
<line x1="119" y1="371" x2="119" y2="379" style="stroke:#000" />
<line x1="47" y1="420" x2="125" y2="465" style="stroke:#000" />
<line x1="55" y1="416" x2="125" y2="456" style="stroke:#000" />
<line x1="62" y1="411" x2="125" y2="448" style="stroke:#000" />
<line x1="68" y1="408" x2="125" y2="441" style="stroke:#000" />
<line x1="74" y1="405" x2="125" y2="434" style="stroke:#000" />
<line x1="79" y1="402" x2="125" y2="428" style="stroke:#000" />
<line x1="83" y1="399" x2="125" y2="423" style="stroke:#000" />
<line x1="88" y1="397" x2="125" y2="418" style="stroke:#000" />
<line x1="91" y1="394" x2="125" y2="414" style="stroke:#000" />
<line x1="95" y1="392" x2="125" y2="410" style="stroke:#000" />
<line x1="98" y1="391" x2="125" y2="406" style="stroke:#000" />
<line x1="100" y1="389" x2="125" y2="403" style="stroke:#000" />
<line x1="103" y1="388" x2="125" y2="400" style="stroke:#000" />
<line x1="105" y1="386" x2="125" y2="398" style="stroke:#000" />
<line x1="107" y1="385" x2="125" y2="396" style="stroke:#000" />
<line x1="109" y1="384" x2="125" y2="394" style="stroke:#000" />
<line x1="110" y1="383" x2="125" y2="392" style="stroke:#000" />
<line x1="112" y1="383" x2="125" y2="390" style="stroke:#000" />
<line x1="113" y1="382" x2="125" y2="389" style="stroke:#000" />
<line x1="114" y1="381" x2="125" y2="387" style="stroke:#000" />
<line x1="115" y1="380" x2="125" y2="386" style="stroke:#000" />
<line x1="116" y1="380" x2="125" y2="385" style="stroke:#000" />
<line x1="117" y1="379" x2="125" y2="384" style="stroke:#000" />
<line x1="118" y1="379" x2="125" y2="383" style="stroke:#000" />
<line x1="119" y1="379" x2="125" y2="382" style="stroke:#000" />
<line x1="125" y1="465" x2="203" y2="420" style="stroke:#000" />
<line x1="125" y1="456" x2="195" y2="416" style="stroke:#000" />
<line x1="125" y1="448" x2="188" y2="411" style="stroke:#000" />
<line x1="125" y1="441" x2="182" y2="408" style="stroke:#000" />
<line x1="125" y1="434" x2="176" y2="405" style="stroke:#000" />
<line x1="125" y1="428" x2="171" y2="402" style="stroke:#000" />
<line x1="125" y1="423" x2="167" y2="399" style="stroke:#000" />
<line x1="125" y1="418" x2="162" y2="397" style="stroke:#000" />
<line x1="125" y1="414" x2="159" y2="394" style="stroke:#000" />
<line x1="125" y1="410" x2="155" y2="392" style="stroke:#000" />
<line x1="125" y1="406" x2="152" y2="391" style="stroke:#000" />
<line x1="125" y1="403" x2="150" y2="389" style="stroke:#000" />
<line x1="125" y1="400" x2="147" y2="388" style="stroke:#000" />
<line x1="125" y1="398" x2="145" y2="386" style="stroke:#000" />
<line x1="125" y1="396" x2="143" y2="385" style="stroke:#000" />
<line x1="125" y1="394" x2="141" y2="384" style="stroke:#000" />
<line x1="125" y1="392" x2="140" y2="383" style="stroke:#000" />
<line x1="125" y1="390" x2="138" y2="383" style="stroke:#000" />
<line x1="125" y1="389" x2="137" y2="382" style="stroke:#000" />
<line x1="125" y1="387" x2="136" y2="381" style="stroke:#000" />
<line x1="125" y1="386" x2="135" y2="380" style="stroke:#000" />
<line x1="125" y1="385" x2="134" y2="380" style="stroke:#000" />
<line x1="125" y1="384" x2="133" y2="379" style="stroke:#000" />
<line x1="125" y1="383" x2="132" y2="379" style="stroke:#000" />
<line x1="125" y1="382" x2="131" y2="379" style="stroke:#000" />
<line x1="203" y1="420" x2="203" y2="330" style="stroke:#000" />
<line x1="195" y1="416" x2="195" y2="334" style="stroke:#000" />
<line x1="188" y1="411" x2="188" y2="339" style="stroke:#000" />
<line x1="182" y1="408" x2="182" y2="342" style="stroke:#000" />
<line x1="176" y1="405" x2="176" y2="345" style="stroke:#000" />
<line x1="171" y1="402" x2="171" y2="348" style="stroke:#000" />
<line x1="167" y1="399" x2="167" y2="351" style="stroke:#000" />
<line x1="162" y1="397" x2="162" y2="353" style="stroke:#000" />
<line x1="159" y1="394" x2="159" y2="356" style="stroke:#000" />
<line x1="155" y1="392" x2="155" y2="358" style="stroke:#000" />
<line x1="152" y1="391" x2="152" y2="359" style="stroke:#000" />
<line x1="150" y1="389" x2="150" y2="361" style="stroke:#000" />
<line x1="147" y1="388" x2="147" y2="362" style="stroke:#000" />
<line x1="145" y1="386" x2="145" y2="364" style="stroke:#000" />
<line x1="143" y1="385" x2="143" y2="365" style="stroke:#000" />
<line x1="141" y1="384" x2="141" y2="366" style="stroke:#000" />
<line x1="140" y1="383" x2="140" y2="367" style="stroke:#000" />
<line x1="138" y1="383" x2="138" y2="367" style="stroke:#000" />
<line x1="137" y1="382" x2="137" y2="368" style="stroke:#000" />
<line x1="136" y1="381" x2="136" y2="369" style="stroke:#000" />
<line x1="135" y1="380" x2="135" y2="370" style="stroke:#000" />
<line x1="134" y1="380" x2="134" y2="370" style="stroke:#000" />
<line x1="133" y1="379" x2="133" y2="371" style="stroke:#000" />
<line x1="132" y1="379" x2="132" y2="371" style="stroke:#000" />
<line x1="131" y1="379" x2="131" y2="371" style="stroke:#000" />
<line x1="203" y1="330" x2="125" y2="285" style="stroke:#000" />
<line x1="195" y1="334" x2="125" y2="294" style="stroke:#000" />
<line x1="188" y1="339" x2="125" y2="302" style="stroke:#000" />
<line x1="182" y1="342" x2="125" y2="309" style="stroke:#000" />
<line x1="176" y1="345" x2="125" y2="316" style="stroke:#000" />
<line x1="171" y1="348" x2="125" y2="322" style="stroke:#000" />
<line x1="167" y1="351" x2="125" y2="327" style="stroke:#000" />
<line x1="162" y1="353" x2="125" y2="332" style="stroke:#000" />
<line x1="159" y1="356" x2="125" y2="336" style="stroke:#000" />
<line x1="155" y1="358" x2="125" y2="340" style="stroke:#000" />
<line x1="152" y1="359" x2="125" y2="344" style="stroke:#000" />
<line x1="150" y1="361" x2="125" y2="347" style="stroke:#000" />
<line x1="147" y1="362" x2="125" y2="350" style="stroke:#000" />
<line x1="145" y1="364" x2="125" y2="352" style="stroke:#000" />
<line x1="143" y1="365" x2="125" y2="354" style="stroke:#000" />
<line x1="141" y1="366" x2="125" y2="356" style="stroke:#000" />
<line x1="140" y1="367" x2="125" y2="358" style="stroke:#000" />
<line x1="138" y1="367" x2="125" y2="360" style="stroke:#000" />
<line x1="137" y1="368" x2="125" y2="361" style="stroke:#000" />
<line x1="136" y1="369" x2="125" y2="363" style="stroke:#000" />
<line x1="135" y1="370" x2="125" y2="364" style="stroke:#000" />
<line x1="134" y1="370" x2="125" y2="365" style="stroke:#000" />
<line x1="133" y1="371" x2="125" y2="366" style="stroke:#000" />
<line x1="132" y1="371" x2="125" y2="367" style="stroke:#000" />
<line x1="131" y1="371" x2="125" y2="368" style="stroke:#000" />
</svg>
